<?xml version="1.0" standalone="no"?>
<!DOCTYPE svg PUBLIC "-//W3C//DTD SVG 20010904//EN"
 "http://www.w3.org/TR/2001/REC-SVG-20010904/DTD/svg10.dtd">
<svg version="1.0" xmlns="http://www.w3.org/2000/svg"
 width="700.000000pt" height="700.000000pt" viewBox="0 0 700.000000 700.000000"
 preserveAspectRatio="xMidYMid meet">
<metadata>
Created by potrace 1.11, written by Peter Selinger 2001-2013
</metadata>
<g transform="translate(0.000000,700.000000) scale(0.100000,-0.100000)"
fill="#000000" stroke="none">
<path d="M6825 6972 c-112 -63 -590 -350 -720 -432 -129 -81 -325 -213 -392
-262 l-53 -39 0 340 c0 337 0 340 -22 361 -22 20 -28 20 -1183 20 -1162 0
-1162 0 -1181 -21 -17 -19 -18 -41 -19 -269 0 -137 -3 -250 -5 -253 -3 -2 -95
-59 -205 -127 -287 -177 -526 -329 -1709 -1085 -34 -22 -100 -64 -147 -93
-349 -221 -418 -268 -482 -328 -61 -57 -262 -246 -372 -349 -17 -16 -85 -80
-151 -141 -65 -61 -133 -124 -149 -140 l-30 -29 1 -1360 c1 -748 3 -1362 3
-1364 1 -3 85 81 189 186 204 209 1080 1097 1646 1668 l356 360 199 400 c109
220 347 698 527 1062 l329 663 0 -576 0 -576 24 -19 c23 -18 58 -19 1182 -19
l1158 0 21 22 c20 21 20 31 20 720 l0 698 113 83 c205 153 452 309 932 592
138 81 260 159 272 173 25 29 26 100 2 124 -45 45 -86 48 -154 10z m-1300
-141 c6 -1 10 -122 9 -343 l-1 -342 -28 -21 c-34 -24 -429 -353 -465 -387 -14
-12 -61 -54 -105 -93 -44 -38 -89 -79 -101 -90 -194 -185 -337 -320 -342 -322
-4 -2 -41 68 -82 155 -82 172 -184 357 -323 587 -102 168 -104 171 -143 185
-64 25 -129 -23 -128 -93 0 -35 19 -74 121 -242 201 -333 293 -508 387 -731
43 -102 50 -113 84 -128 36 -16 67 -16 96 1 8 4 104 94 213 199 214 207 216
208 330 310 42 38 101 91 131 119 84 77 347 293 351 289 2 -2 5 -272 5 -600 1
-521 -1 -597 -14 -603 -8 -4 -492 -6 -1075 -6 l-1060 1 -3 670 -2 671 101 219
c55 120 123 267 150 326 27 59 49 109 49 112 0 10 -64 -26 -185 -103 l-110
-70 -3 157 c-1 86 -1 161 1 167 3 7 338 10 1068 9 585 -1 1069 -2 1074 -3z
m-2825 -1016 c98 -143 241 -226 426 -247 20 -3 -3 -52 -233 -518 -140 -283
-309 -625 -374 -760 -66 -135 -124 -252 -129 -260 -5 -8 -20 -37 -33 -65 -14
-27 -57 -116 -97 -197 l-72 -147 -62 3 c-148 9 -357 110 -593 288 -139 104
-178 138 -321 278 -213 208 -326 350 -393 494 -36 77 -51 140 -37 151 2 1 97
61 213 134 116 73 356 227 535 341 179 115 386 247 460 294 74 47 243 154 375
239 l240 154 32 -68 c17 -37 46 -89 63 -114z"/>
<path d="M3274 4169 c-18 -20 -19 -54 -19 -1185 l0 -1164 21 -21 22 -21 1113
0 c613 0 1135 1 1161 1 35 1 52 7 68 23 20 22 20 28 20 1185 0 1150 0 1163
-20 1183 -20 20 -33 20 -1183 20 l-1164 0 -19 -21z m2251 -111 c7 -4 9 -370 8
-1070 -1 -584 -2 -1067 -2 -1073 -1 -7 -367 -10 -1076 -10 l-1075 0 0 1080 0
1080 1067 0 c588 0 1073 -3 1078 -7z"/>
<path d="M104 558 c-51 -13 -77 -50 -82 -118 -3 -35 1 -72 8 -90 34 -81 165
-90 206 -14 10 18 16 35 14 38 -10 9 -45 10 -48 1 -8 -24 -37 -45 -63 -45 -52
0 -83 86 -55 151 17 40 106 43 106 4 0 -10 10 -15 30 -15 37 0 39 18 8 55 -27
30 -80 45 -124 33z"/>
<path d="M1299 543 c-1 -10 0 -31 1 -46 1 -26 0 -28 -19 -18 -66 36 -130 -23
-118 -110 7 -54 35 -82 79 -81 18 1 50 1 71 1 l37 1 0 135 0 135 -25 0 c-17 0
-25 -6 -26 -17z m-20 -107 c32 -38 17 -106 -23 -106 -32 0 -50 32 -42 75 8 43
42 59 65 31z"/>
<path d="M1499 548 c-1 -17 -1 -230 0 -246 1 -8 13 -12 34 -11 17 1 42 -1 54
-5 30 -10 82 21 90 54 22 82 -11 150 -72 150 -17 0 -36 -5 -43 -12 -9 -9 -12
-2 -12 35 0 43 -2 47 -25 47 -14 0 -25 -6 -26 -12z m120 -111 c27 -34 15 -101
-20 -110 -40 -11 -66 74 -33 107 19 19 38 20 53 3z"/>
<path d="M2035 428 l0 -133 28 -3 c27 -3 27 -3 27 56 l0 60 43 0 c72 -1 77 1
77 22 0 16 -7 20 -37 21 -21 1 -48 0 -60 -1 -19 -1 -23 4 -23 29 0 22 5 31 18
32 9 1 39 2 66 2 43 2 49 5 51 25 2 21 -1 22 -94 22 l-96 0 0 -132z"/>
<path d="M2463 424 l0 -135 26 3 26 3 0 120 c1 66 -1 126 -3 133 -2 6 -14 12
-27 12 -22 0 -22 -2 -22 -136z"/>
<path d="M2565 543 c2 -10 4 -22 4 -26 2 -19 44 -1 47 21 3 18 -1 22 -25 22
-22 0 -28 -4 -26 -17z"/>
<path d="M3204 425 l0 -135 28 0 c27 0 28 2 28 48 l0 47 44 1 c81 1 124 57 95
126 -15 38 -43 48 -128 48 l-67 0 0 -135z m144 57 c5 -33 -15 -52 -54 -52 -33
0 -34 1 -34 39 0 43 10 51 55 41 21 -4 31 -12 33 -28z"/>
<path d="M4229 558 c-1 -2 -2 -63 -3 -135 l-1 -133 26 0 c25 0 27 3 27 48 0
95 1 100 24 108 29 9 50 -20 48 -66 -4 -81 -2 -90 25 -90 25 0 25 1 25 78 0
94 -15 122 -65 122 -19 0 -37 -4 -40 -10 -13 -21 -20 -8 -19 35 1 41 -1 45
-22 45 -13 0 -25 -1 -25 -2z"/>
<path d="M850 519 c0 -12 -7 -27 -16 -34 -15 -10 -15 -13 0 -27 11 -12 16 -35
16 -80 0 -75 6 -86 48 -94 28 -6 32 -4 32 14 0 11 -6 22 -13 25 -20 7 -21 127
-1 127 7 0 14 9 14 20 0 11 -7 20 -15 20 -9 0 -15 9 -15 25 0 20 -5 25 -25 25
-19 0 -25 -5 -25 -21z"/>
<path d="M290 390 l0 -100 25 0 c24 0 25 2 25 63 0 65 11 87 41 87 18 0 29 18
22 38 -6 17 -23 15 -45 -5 -17 -15 -18 -15 -18 0 0 11 -8 17 -25 17 l-25 0 0
-100z"/>
<path d="M459 477 c-26 -20 -39 -53 -39 -97 0 -59 41 -100 94 -95 57 5 111 65
59 65 -9 0 -24 -7 -34 -16 -20 -18 -54 -11 -63 13 -9 23 -3 26 65 26 l61 0 -5
39 c-3 23 -14 47 -28 59 -25 22 -85 25 -110 6z m81 -47 c10 -18 8 -20 -30 -20
-41 0 -49 7 -28 28 18 18 46 14 58 -8z"/>
<path d="M664 482 c-10 -7 -34 -45 -34 -55 0 -11 50 -1 55 11 5 14 51 16 60 3
7 -13 -11 -24 -60 -36 -52 -14 -75 -54 -51 -90 21 -32 50 -39 86 -21 17 8 30
10 30 5 0 -5 14 -9 31 -9 21 0 28 4 23 12 -4 7 -8 46 -9 87 -2 59 -6 77 -20
87 -20 15 -93 19 -111 6z m82 -118 c-3 -22 -34 -44 -52 -37 -20 7 -17 41 4 46
36 10 50 7 48 -9z"/>
<path d="M985 466 c-30 -30 -41 -87 -25 -127 27 -64 115 -75 157 -20 7 9 13
20 13 24 0 12 -45 3 -63 -12 -21 -16 -53 -6 -60 19 -4 17 0 20 26 21 79 2 97
4 97 12 0 4 0 18 0 32 0 66 -96 100 -145 51z m85 -20 c0 -2 3 -11 6 -20 5 -13
-2 -16 -35 -16 -39 0 -41 1 -31 20 9 17 60 30 60 16z"/>
<path d="M1710 481 c0 -6 15 -53 34 -106 36 -100 37 -125 5 -125 -12 0 -19 -7
-19 -20 0 -16 7 -20 30 -20 39 0 49 18 99 163 l40 117 -27 0 c-26 0 -29 -5
-47 -72 l-19 -73 -22 70 c-19 61 -25 70 -48 73 -14 2 -26 -1 -26 -7z"/>
<path d="M2287 479 c-44 -26 -57 -130 -21 -170 34 -38 131 -26 148 16 9 24 8
25 -19 23 -14 -1 -25 -5 -25 -9 0 -16 -35 -18 -56 -4 -38 25 -21 41 43 38 32
-1 60 0 64 3 13 8 -10 79 -32 97 -24 19 -74 22 -102 6z m77 -46 c8 -21 -8 -31
-40 -25 -23 4 -31 21 -17 35 13 13 51 7 57 -10z"/>
<path d="M2569 483 c-1 -5 -2 -50 -3 -101 l-1 -93 25 3 c25 3 25 4 26 101 2
96 2 97 -22 97 -13 0 -25 -3 -25 -7z"/>
<path d="M2669 488 c-1 -2 -3 -65 -4 -140 l-1 -138 26 0 c25 0 27 2 25 45 -1
38 1 45 14 39 37 -14 60 -13 85 7 48 38 51 134 5 172 -23 19 -74 23 -84 7 -3
-5 -11 -10 -16 -10 -6 0 -7 5 -4 10 4 6 -5 10 -19 10 -14 0 -27 -1 -27 -2z
m115 -54 c19 -18 21 -75 4 -92 -7 -7 -22 -12 -34 -12 -31 0 -46 46 -28 88 14
35 34 41 58 16z"/>
<path d="M2906 464 c-32 -33 -37 -78 -14 -136 18 -47 98 -60 139 -22 41 37 13
52 -43 24 -22 -10 -30 -11 -43 0 -18 15 -20 39 -2 41 6 1 36 1 65 1 51 -2 52
-1 52 27 0 17 -11 43 -26 60 -35 41 -89 43 -128 5z m94 -34 c10 -18 8 -20 -30
-20 -43 0 -43 0 -34 24 9 23 51 20 64 -4z"/>
<path d="M3460 465 c-37 -39 -37 -115 -1 -154 24 -26 52 -32 102 -22 9 2 49
41 49 49 0 14 -44 11 -61 -4 -22 -20 -55 -10 -62 16 -4 16 0 20 21 21 82 2
102 5 102 12 0 4 0 18 0 32 0 68 -102 101 -150 50z m90 -19 c0 -2 3 -11 6 -20
5 -13 -2 -16 -35 -16 -39 0 -41 1 -31 20 9 17 60 30 60 16z"/>
<path d="M3650 389 l0 -100 27 3 c26 3 27 5 24 55 -3 59 11 93 38 93 20 0 31
17 24 38 -6 17 -23 15 -45 -5 -17 -15 -18 -15 -18 0 0 11 -8 17 -25 17 l-25 0
0 -101z"/>
<path d="M3791 407 c1 -46 7 -90 13 -99 18 -25 53 -31 86 -14 17 8 30 10 30 5
0 -5 11 -9 25 -9 l25 0 0 100 0 100 -25 0 c-14 0 -25 -6 -26 -12 -1 -7 -2 -39
-3 -72 -1 -46 -5 -61 -21 -72 -35 -23 -50 -3 -52 73 0 37 -2 71 -2 76 -1 4
-12 7 -27 7 -25 0 -25 0 -23 -83z"/>
<path d="M4049 477 c-26 -20 -39 -53 -39 -97 0 -58 41 -99 93 -96 40 3 72 26
80 57 7 27 -33 26 -56 -2 -16 -19 -20 -19 -40 -6 -40 26 -30 117 13 117 10 0
23 -7 28 -16 8 -15 40 -25 54 -17 12 6 -19 60 -37 67 -27 10 -79 6 -96 -7z"/>
<path d="M4483 478 c-56 -27 -55 -145 1 -181 29 -18 92 -14 116 8 43 39 44
118 3 160 -28 27 -79 33 -120 13z m91 -59 c15 -36 11 -62 -11 -81 -25 -20 -43
-18 -59 8 -18 27 -12 89 9 97 30 13 49 6 61 -24z"/>
<path d="M44 169 c-10 -12 -18 -23 -16 -25 6 -11 1 -35 -7 -30 -5 3 -11 -1
-15 -9 -3 -8 2 -19 11 -24 11 -6 16 -21 15 -45 -1 -35 0 -37 26 -34 24 3 27 7
26 41 -1 25 2 37 11 37 24 0 26 18 4 39 l-21 19 21 11 c26 14 17 41 -14 41
-12 0 -30 -9 -41 -21z"/>
<path d="M1070 95 c0 -95 0 -95 25 -95 19 0 25 5 25 23 0 36 23 61 48 53 17
-6 22 -15 22 -42 0 -30 3 -34 25 -34 14 0 26 6 26 13 1 6 2 19 3 27 6 59 -40
93 -96 72 l-28 -10 0 44 c0 40 -2 44 -25 44 -25 0 -25 0 -25 -95z"/>
<path d="M1602 95 l0 -95 29 0 c26 0 28 3 25 35 -4 56 9 61 35 13 23 -41 26
-43 77 -46 l52 -3 0 96 0 96 -27 -3 -28 -3 0 -87 c0 -49 0 -88 -1 -88 -1 0
-25 40 -53 90 -47 80 -56 90 -81 90 l-28 0 0 -95z"/>
<path d="M2650 95 c0 -93 1 -95 23 -95 13 0 27 3 31 8 4 4 20 7 34 8 78 3 101
16 111 66 17 78 -21 108 -135 108 l-64 0 0 -95z m144 19 c9 -36 -9 -53 -52
-51 -35 2 -37 3 -37 40 -1 37 -1 37 41 37 37 0 43 -3 48 -26z"/>
<path d="M3262 168 c4 -30 43 -37 51 -9 6 25 0 31 -30 31 -20 0 -24 -5 -21
-22z"/>
<path d="M950 139 c0 -17 -4 -28 -10 -24 -5 3 -10 -3 -10 -14 0 -12 5 -21 10
-21 6 0 10 -18 10 -40 0 -36 3 -40 25 -40 25 0 29 6 27 48 -1 13 5 25 13 29
18 6 20 44 3 40 -7 -1 -14 5 -14 13 -1 8 -2 21 -3 28 0 6 -12 12 -26 12 -21 0
-25 -5 -25 -31z"/>
<path d="M3780 145 c0 -13 -8 -29 -17 -34 -17 -10 -17 -12 0 -25 10 -8 17 -27
17 -50 0 -32 3 -36 25 -36 23 0 25 4 25 40 0 29 4 40 15 40 8 0 15 7 15 15 0
9 -7 18 -15 21 -8 4 -15 17 -15 30 0 19 -5 24 -25 24 -20 0 -25 -5 -25 -25z"/>
<path d="M149 118 c0 -2 -2 -29 -2 -61 -2 -56 -1 -57 26 -57 23 0 27 4 27 30
0 26 5 31 30 37 23 4 30 11 30 29 0 30 -23 31 -49 3 l-20 -21 6 21 c4 17 1 21
-21 21 -14 0 -26 -1 -27 -2z"/>
<path d="M315 98 c-15 -14 -28 -38 -32 -61 -5 -34 -4 -37 20 -37 20 0 26 6 31
34 7 36 30 52 59 40 17 -6 39 -58 30 -68 -4 -3 5 -6 19 -6 13 0 27 2 30 6 12
11 -12 79 -34 96 -33 25 -91 23 -123 -4z"/>
<path d="M519 118 c-1 -2 -3 -29 -4 -60 -2 -57 -2 -58 25 -58 19 0 27 5 27 18
0 39 4 50 19 56 24 9 44 -12 44 -45 0 -24 4 -29 25 -29 21 0 25 5 25 29 0 59
56 68 62 9 2 -28 7 -33 28 -33 23 0 25 3 23 45 -3 64 -51 90 -103 58 -15 -10
-22 -10 -32 0 -14 14 -64 16 -73 2 -3 -5 -11 -10 -16 -10 -6 0 -7 5 -4 10 4 6
-5 10 -19 10 -14 0 -27 -1 -27 -2z"/>
<path d="M1311 99 c-19 -18 -36 -63 -32 -86 0 -5 41 -8 91 -9 98 -1 100 1 84
64 -13 48 -103 68 -143 31z m88 -38 c9 -15 7 -19 -12 -23 -38 -7 -55 1 -50 23
7 25 49 25 62 0z"/>
<path d="M1886 94 c-18 -18 -26 -37 -26 -60 0 -30 3 -34 25 -34 19 0 25 5 25
23 1 28 22 57 43 57 23 0 47 -28 47 -56 0 -19 5 -24 25 -24 20 0 25 5 25 25 0
86 -103 129 -164 69z"/>
<path d="M2090 60 c0 -57 1 -60 24 -60 20 0 24 6 27 38 6 63 0 82 -27 82 -23
0 -24 -3 -24 -60z"/>
<path d="M2219 113 c-1 -5 -2 -32 -3 -60 -1 -52 -1 -53 26 -53 27 0 28 1 28
60 0 57 -1 60 -25 60 -14 0 -26 -3 -26 -7z"/>
<path d="M2316 63 c1 -55 2 -58 27 -61 24 -3 27 0 27 26 0 36 22 56 50 47 18
-6 27 -34 21 -67 0 -5 12 -8 27 -8 29 0 30 3 23 77 -4 40 -90 60 -110 26 -10
-17 -10 -17 -11 0 0 12 -8 17 -28 17 -27 0 -27 -1 -26 -57z"/>
<path d="M2890 59 c0 -60 0 -60 28 -57 16 2 26 8 24 16 -4 22 17 50 40 54 24
3 33 37 12 45 -8 3 -24 -3 -34 -12 -18 -16 -20 -17 -20 -2 0 11 -8 17 -25 17
-24 0 -25 -3 -25 -61z"/>
<path d="M3056 97 c-14 -14 -27 -33 -27 -42 -1 -8 -2 -23 -3 -32 -1 -12 7 -19
24 -21 21 -2 26 2 28 24 3 33 19 54 42 54 23 0 52 -34 48 -57 -2 -13 4 -19 26
-21 28 -4 29 -3 23 34 -8 51 -35 75 -90 81 -39 5 -49 2 -71 -20z"/>
<path d="M3260 60 c0 -59 1 -60 28 -60 25 0 27 3 26 40 -3 82 -3 80 -29 80
-24 0 -25 -3 -25 -60z"/>
<path d="M3384 102 c-24 -19 -45 -74 -35 -90 4 -6 41 -10 94 -10 85 1 87 2 87
26 0 75 -90 120 -146 74z m86 -41 c5 -11 10 -21 10 -23 0 -2 -43 -2 -72 1 -13
2 -9 29 5 34 26 11 47 6 57 -12z"/>
<path d="M3586 95 c-22 -24 -39 -79 -28 -90 3 -3 15 -5 27 -5 18 0 24 7 29 40
5 34 10 40 31 40 13 0 28 -6 32 -14 8 -14 25 -20 51 -17 15 1 3 29 -24 55 -25
26 -91 21 -118 -9z"/>
</g>
</svg>
